<svg width="12" height="13" viewBox="0 0 12 13" fill="none" xmlns="http://www.w3.org/2000/svg">
<path d="M7.2717 1.84213C10.03 2.01909 11.7926 5.06722 10.6435 7.67334M7.64839 3.43311C8.94592 3.5892 9.84769 5.14871 9.37351 6.41652M5.63212 3.07838L4.55625 1.21777C4.43512 1.00829 4.16502 0.937108 3.95658 1.0609C0.818476 2.92459 0.52021 3.82116 1.48984 5.46625L4.50019 10.6723C5.44226 12.3333 6.36904 12.5237 9.55458 10.742C9.76617 10.6237 9.83947 10.3545 9.71834 10.1451L8.64247 8.28445C8.48564 8.01323 8.27419 8.02664 8.02551 8.09766C7.77684 8.16869 6.84531 8.77801 6.50577 8.97374C6.16623 9.16948 3.69427 4.73791 3.96591 4.58132C4.23754 4.42474 5.29971 3.88476 5.48565 3.70525C5.67159 3.52573 5.78895 3.3496 5.63212 3.07838Z" stroke="#4D1BD8" stroke-linecap="round"/>
</svg>
