<svg width="14" height="10" viewBox="0 0 14 10" fill="none" xmlns="http://www.w3.org/2000/svg">
<path d="M1.64155 1C1.28723 1 1 1.25069 1 1.55993V8.44004C1 8.74928 1.28723 8.99997 1.64155 8.99997L8.73525 9C9.08956 9 9.37679 8.74931 9.37679 8.44007V1.55996C9.37679 1.25072 9.08956 1.00003 8.73525 1.00003L1.64155 1Z" fill="#4D1BD8"/>
<path d="M9.37679 2.74534V7.03357C9.37679 7.15038 9.62863 7.25841 10.0383 7.31732L11.7243 7.80084C12.3634 7.9841 13 7.50437 13 6.83959V2.97048C13 2.31278 12.376 1.83417 11.7408 2.00466L10.0383 2.46159C9.62863 2.5205 9.37679 2.62853 9.37679 2.74534Z" fill="#4D1BD8"/>
<path d="M1.64155 1C1.28723 1 1 1.25069 1 1.55993V8.44004C1 8.74928 1.28723 8.99997 1.64155 8.99997L8.73525 9C9.08956 9 9.37679 8.74931 9.37679 8.44007V1.55996C9.37679 1.25072 9.08956 1.00003 8.73525 1.00003L1.64155 1Z" stroke="white"/>
<path d="M9.37679 2.74534V7.03357C9.37679 7.15038 9.62863 7.25841 10.0383 7.31732L11.7243 7.80084C12.3634 7.9841 13 7.50437 13 6.83959V2.97048C13 2.31278 12.376 1.83417 11.7408 2.00466L10.0383 2.46159C9.62863 2.5205 9.37679 2.62853 9.37679 2.74534Z" stroke="white"/>
</svg>
