<svg width="14" height="13" viewBox="0 0 14 13" fill="none" xmlns="http://www.w3.org/2000/svg">
<path d="M12.0204 8.92756C12.6356 8.09993 13 7.07232 13 5.95902C13 3.22023 10.7948 1 8.07463 1C5.35442 1 3.14925 3.22023 3.14925 5.95902C3.14925 8.69781 5.35442 10.918 8.07463 10.918C8.92196 10.918 9.71931 10.7026 10.4156 10.3232L12.6264 11.1443C12.7582 11.1735 12.8724 11.0487 12.8335 10.918L12.0204 8.92756Z" fill="white"/>
<path d="M3.14925 4.46362C1.87593 5.09612 1 6.41639 1 7.94265C1 8.81306 1.28487 9.61647 1.76587 10.2635L1.13016 11.8197C1.09977 11.9219 1.18905 12.0195 1.29206 11.9967L3.02053 11.3547C3.5649 11.6513 4.18829 11.8197 4.85075 11.8197C5.72569 11.8197 6.53248 11.5259 7.1791 11.031M13 5.95902C13 7.07232 12.6356 8.09993 12.0204 8.92756L12.8335 10.918C12.8724 11.0487 12.7582 11.1735 12.6264 11.1443L10.4156 10.3232C9.71931 10.7026 8.92195 10.918 8.07463 10.918C5.35442 10.918 3.14925 8.69781 3.14925 5.95902C3.14925 3.22023 5.35442 1 8.07463 1C10.7948 1 13 3.22023 13 5.95902Z" stroke="#4D1BD8" stroke-linecap="round" stroke-linejoin="round"/>
</svg>
